<svg width="21" height="22" viewBox="0 0 21 22" fill="none" xmlns="http://www.w3.org/2000/svg">
<g id="PhoneCall 1">
<g id="Phone Icon">
<path id="Vector" d="M13.0781 3.78113C14.1906 4.08035 15.205 4.66663 16.0197 5.48126C16.8343 6.29589 17.4206 7.31026 17.7198 8.42278" stroke="white" stroke-width="1.125" stroke-linecap="round" stroke-linejoin="round"/>
<path id="Vector_2" d="M12.3984 6.3175C13.0658 6.49705 13.6743 6.84876 14.163 7.33744C14.6516 7.82612 15.0034 8.43461 15.1829 9.10197" stroke="white" stroke-width="1.125" stroke-linecap="round" stroke-linejoin="round"/>
<path id="Vector_3" d="M7.58625 10.7388C8.26678 12.1305 9.39473 13.2536 10.7894 13.9281C10.8915 13.9765 11.0045 13.9974 11.1172 13.9888C11.2298 13.9801 11.3383 13.9423 11.4319 13.8789L13.4859 12.51C13.5767 12.4494 13.6811 12.4124 13.7897 12.4023C13.8983 12.3922 14.0077 12.4094 14.1081 12.4522L17.9504 14.0994C18.0809 14.1549 18.1899 14.2512 18.2609 14.3739C18.3319 14.4967 18.3611 14.6392 18.3442 14.7799C18.2225 15.7302 17.7588 16.6035 17.0397 17.2365C16.3206 17.8694 15.3955 18.2186 14.4375 18.2187C11.4787 18.2187 8.64104 17.0433 6.54884 14.9511C4.45664 12.8589 3.28125 10.0213 3.28125 7.06244C3.28134 6.10453 3.63056 5.1795 4.26353 4.46052C4.8965 3.74154 5.76983 3.27792 6.72 3.15644C6.86078 3.13946 7.00327 3.16868 7.126 3.2397C7.24874 3.31071 7.34509 3.41968 7.40053 3.55019L9.04903 7.39582C9.09143 7.49518 9.10864 7.60347 9.09914 7.71108C9.08963 7.81869 9.05371 7.92229 8.99456 8.01269L7.62956 10.0983C7.56761 10.1922 7.53106 10.3005 7.52347 10.4128C7.51588 10.525 7.53751 10.6374 7.58625 10.7388V10.7388Z" stroke="white" stroke-width="1.125" stroke-linecap="round" stroke-linejoin="round"/>
</g>
</g>
</svg>
