<svg width="16" height="24" viewBox="0 0 16 24" fill="none" xmlns="http://www.w3.org/2000/svg">
<g id="Group">
<path id="Vector 962" d="M0.875 7.5L1.24881 4.125C3.1282 7.6848 11.7488 3.75 14.2957 1.5C14.804 3.58108 15.125 7.5 15.125 7.5C15.125 7.5 16.2006 12 7.81469 12C1.10593 12 1.2486 8.625 0.875 7.5Z" fill="#2F3233"/>
<path id="Vector 961" d="M14.75 9L14.3774 5.625C12.5039 9.1848 3.91029 5.25 1.37137 3C0.864724 5.08108 0.544695 9 0.544695 9C0.544695 9 -0.527575 13.5 7.83207 13.5C14.5198 13.5 14.3776 10.125 14.75 9Z" fill="#2F3233"/>
<path id="Vector 960" d="M0.875 10.5L1.24881 7.125C3.1282 10.6848 11.7488 6.75 14.2957 4.5C14.804 6.58108 15.125 10.5 15.125 10.5C15.125 10.5 16.2006 15 7.81469 15C1.10593 15 1.2486 11.625 0.875 10.5Z" fill="#2F3233"/>
<path id="Vector" d="M15.3252 4.1651C15.1043 2.83654 14.895 1.58301 14.895 0.553314V0H1.09951V0.553314C1.09951 1.58491 0.888968 2.84603 0.664758 4.18459C0.131815 7.37477 -0.471857 10.9924 1.49618 13.3169C2.71972 14.7618 4.7385 15.4891 7.6683 15.5402V22.8951H4.50253V24H12.0005V22.8951H8.77416V15.5199C11.4676 15.4043 13.3405 14.6835 14.4971 13.3163C16.4673 10.9911 15.861 7.37022 15.3252 4.1651ZM7.99664 14.4394C5.23753 14.4394 3.38729 13.8399 2.33988 12.6027C0.702843 10.6687 1.26261 7.31505 1.75759 4.35211C1.95182 3.19335 2.13528 2.09887 2.19007 1.10486H13.803C13.8572 2.08711 14.0389 3.17526 14.2309 4.32351L14.2372 4.36109C14.7313 7.31758 15.2909 10.6686 13.6539 12.6026C12.6069 13.8398 10.7566 14.4394 7.99664 14.4394Z" fill="#2F3233"/>
</g>
</svg>
