<svg width="16" height="24" viewBox="0 0 16 24" fill="none" xmlns="http://www.w3.org/2000/svg">
<g id="Group">
<path id="Vector" d="M15.1846 4.1651C14.9637 2.83654 14.7544 1.58301 14.7544 0.553314V0H0.958888V0.553314C0.958888 1.58491 0.748343 2.84603 0.524133 4.18459C-0.00880976 7.37477 -0.612482 10.9924 1.35556 13.3169C2.5791 14.7618 4.59788 15.4891 7.52767 15.5402V22.8951H4.3619V24H11.8599V22.8951H8.63354V15.5199C11.327 15.4043 13.1999 14.6835 14.3565 13.3163C16.3267 10.9911 15.7203 7.37022 15.1846 4.1651ZM7.85601 14.4394C5.09691 14.4394 3.24667 13.8399 2.19926 12.6027C0.562218 10.6687 1.12198 7.31505 1.61697 4.35211C1.81119 3.19335 1.99466 2.09887 2.04945 1.10486H13.6623C13.7166 2.08711 13.8983 3.17526 14.0903 4.32351L14.0966 4.36109C14.5907 7.31758 15.1503 10.6686 13.5133 12.6026C12.4662 13.8398 10.616 14.4394 7.85601 14.4394Z" fill="#2F3233"/>
</g>
</svg>
