<?xml version="1.0" standalone="no"?>
<!DOCTYPE svg PUBLIC "-//W3C//DTD SVG 20010904//EN"
 "http://www.w3.org/TR/2001/REC-SVG-20010904/DTD/svg10.dtd">
<svg version="1.0" xmlns="http://www.w3.org/2000/svg"
 width="32.000000px" height="32.000000px" viewBox="0 0 400.000000 600.000000"
 preserveAspectRatio="xMidYMid meet">

<g transform="translate(0.000000,512.000000) scale(0.08,-0.08)"
fill="#000000" stroke="none">
<path d="M1305 4923 c-16 -2 -74 -13 -129 -24 -445 -92 -784 -369 -1010 -824
-128 -258 -160 -397 -160 -695 0 -158 5 -220 23 -325 45 -255 119 -472 251
-740 140 -282 339 -578 575 -855 126 -148 532 -553 700 -700 171 -149 463
-382 547 -437 266 -173 633 -178 897 -12 81 51 329 246 526 415 188 160 607
579 747 744 504 600 781 1171 838 1729 38 382 -35 703 -237 1031 -220 357
-531 582 -928 671 -131 30 -410 37 -570 14 -222 -31 -488 -111 -704 -211 -52
-24 -99 -44 -106 -44 -6 0 -72 26 -146 59 -221 97 -456 165 -669 196 -95 13
-364 18 -445 8z"/>
</g>
</svg>
