<svg width="32" height="32" viewBox="0 0 32 32" fill="none" xmlns="http://www.w3.org/2000/svg">
<path d="M15.9375 25.25C15.9375 25.25 5 19.125 5 11.6875C5 10.3727 5.45554 9.0985 6.28912 8.0817C7.12269 7.0649 8.28281 6.36831 9.57209 6.11046C10.8614 5.8526 12.2002 6.0494 13.3607 6.66738C14.5212 7.28536 15.4318 8.28634 15.9375 9.50001V9.50001C16.4432 8.28634 17.3538 7.28536 18.5143 6.66738C19.6748 6.0494 21.0136 5.8526 22.3029 6.11046C23.5922 6.36831 24.7523 7.0649 25.5859 8.0817C26.4195 9.0985 26.875 10.3727 26.875 11.6875C26.875 19.125 15.9375 25.25 15.9375 25.25Z" stroke="#2F3233" stroke-width="1.5" stroke-linecap="round" stroke-linejoin="round"/>
</svg>
